<svg id="eUuFiIhbD8g1" xmlns="http://www.w3.org/2000/svg" xmlns:xlink="http://www.w3.org/1999/xlink" viewBox="0 0 300 300" shape-rendering="geometricPrecision" text-rendering="geometricPrecision" project-id="8d59308d96d84c91b82d5a971afd9881" export-id="940d7a28406646269dd035bb3bfd7a67" cached="false"><g transform="translate(-.423901-14.909427)"><line x1="0" y1="-44.934783" x2="0" y2="44.934782" transform="translate(140.875395 184.843812)" fill="none" stroke="#ffffff" stroke-width="8"/><line x1="0" y1="-44.934783" x2="0" y2="44.934782" transform="translate(159.972679 184.843812)" fill="none" stroke="#ffffff" stroke-width="8"/><line x1="-2.527581" y1="-3.089266" x2="2.527581" y2="3.089266" transform="translate(143.402977 232.86786)" fill="none" stroke="#ffffff" stroke-width="8"/><line x1="2.527582" y1="-3.089266" x2="-2.527582" y2="3.089266" transform="translate(157.445097 232.86786)" fill="none" stroke="#ffffff" stroke-width="8"/><line x1="0" y1="-19.93981" x2="0" y2="19.93981" transform="translate(145.930558 255.896936)" fill="none" stroke="#ffffff" stroke-width="8"/><line x1="0" y1="-19.93981" x2="0" y2="19.93981" transform="translate(154.917515 255.896936)" fill="none" stroke="#ffffff" stroke-width="8"/><line x1="-2.034721" y1="-6.740218" x2="2.034721" y2="6.740217" transform="translate(147.965279 282.015279)" fill="none" stroke="#ffffff" stroke-width="8"/><line x1="2.246739" y1="-6.740218" x2="-2.246739" y2="6.740217" transform="translate(152.670776 282.015279)" fill="none" stroke="#ffffff" stroke-width="8"/><line x1="-1.263791" y1="4.493479" x2="1.263791" y2="-4.493479" transform="translate(142.139186 135.415551)" fill="none" stroke="#ffffff" stroke-width="8"/><line x1="1.263791" y1="4.493479" x2="-1.263791" y2="-4.493479" transform="translate(158.708888 135.415551)" fill="none" stroke="#ffffff" stroke-width="8"/><line x1="-7.652955" y1="0" x2="7.652956" y2="0" transform="translate(151.055932 130.922072)" fill="none" stroke="#ffffff" stroke-width="8"/><line x1="0" y1="5.488312" x2="0" y2="-5.488312" transform="translate(145.930422 125.433717)" fill="none" stroke="#ffffff" stroke-width="8"/><line x1="2.527581" y1="5.464519" x2="-2.527581" y2="-5.46452" transform="translate(143.402841 114.480888)" fill="none" stroke="#ffffff" stroke-width="8"/><line x1="0" y1="5.488312" x2="0" y2="-5.488312" transform="translate(154.917379 125.433717)" fill="none" stroke="#ffffff" stroke-width="8"/><line x1="-2.527582" y1="5.464519" x2="2.527582" y2="-5.46452" transform="translate(157.444961 114.480888)" fill="none" stroke="#ffffff" stroke-width="8"/></g><g transform="translate(-.423901-14.909425)"><line x1="20.501495" y1="35.666985" x2="-20.501494" y2="-35.666984" transform="translate(120.3739 104.242046)" fill="none" stroke="#ffffff" stroke-width="8"/><line x1="35.666984" y1="19.097283" x2="-35.666983" y2="-19.097282" transform="translate(64.205423 48.916095)" fill="none" stroke="#ffffff" stroke-width="8"/><line x1="11.514539" y1="-9.548641" x2="-11.514538" y2="9.548641" transform="translate(17.023902 39.367454)" fill="none" stroke="#ffffff" stroke-width="8"/><line x1="-11.514538" y1="-60.100271" x2="11.514538" y2="60.100271" transform="translate(17.023902 109.016366)" fill="none" stroke="#ffffff" stroke-width="8"/><line x1="-56.168477" y1="-7.863587" x2="56.168477" y2="7.863587" transform="translate(84.706918 176.980224)" fill="none" stroke="#ffffff" stroke-width="8"/><line x1="10.391168" y1="-10.110326" x2="-10.391168" y2="10.110326" transform="translate(38.929608 181.473703)" fill="none" stroke="#ffffff" stroke-width="8"/><line x1="5.757269" y1="-19.097283" x2="-5.757269" y2="19.097283" transform="translate(22.781171 210.681312)" fill="none" stroke="#ffffff" stroke-width="8"/><line x1="-10.952853" y1="-29.488451" x2="10.952853" y2="29.488451" transform="translate(27.976755 259.267045)" fill="none" stroke="#ffffff" stroke-width="8"/><line x1="-30.471399" y1="-5.622252" x2="30.4714" y2="5.622252" transform="translate(69.401007 294.377748)" fill="none" stroke="#ffffff" stroke-width="8"/><line x1="-20.501494" y1="35.110703" x2="20.501494" y2="-35.110702" transform="translate(120.373901 264.889298)" fill="none" stroke="#ffffff" stroke-width="8"/></g><g transform="matrix(-.999998 0 0 1 300.42389-14.909384)"><line x1="20.501495" y1="35.666985" x2="-20.501494" y2="-35.666984" transform="translate(120.3739 104.242046)" fill="none" stroke="#ffffff" stroke-width="8"/><line x1="-20.501494" y1="35.110703" x2="20.501494" y2="-35.110702" transform="translate(120.373901 264.889298)" fill="none" stroke="#ffffff" stroke-width="8"/><line x1="35.666984" y1="19.097283" x2="-35.666983" y2="-19.097282" transform="translate(64.205423 48.916095)" fill="none" stroke="#ffffff" stroke-width="8"/><line x1="11.514539" y1="-9.548641" x2="-11.514538" y2="9.548641" transform="translate(17.023902 39.367454)" fill="none" stroke="#ffffff" stroke-width="8"/><line x1="-11.514538" y1="-60.100271" x2="11.514538" y2="60.100271" transform="translate(17.023902 109.016366)" fill="none" stroke="#ffffff" stroke-width="8"/><line x1="-56.168477" y1="-7.863587" x2="56.168477" y2="7.863587" transform="translate(84.706918 176.980224)" fill="none" stroke="#ffffff" stroke-width="8"/><line x1="10.391168" y1="-10.110326" x2="-10.391168" y2="10.110326" transform="translate(38.929608 181.473703)" fill="none" stroke="#ffffff" stroke-width="8"/><line x1="5.757269" y1="-19.097283" x2="-5.757269" y2="19.097283" transform="translate(22.781171 210.681312)" fill="none" stroke="#ffffff" stroke-width="8"/><line x1="-10.952853" y1="-29.488451" x2="10.952853" y2="29.488451" transform="translate(27.976755 259.267045)" fill="none" stroke="#ffffff" stroke-width="8"/><line x1="-30.471399" y1="-5.622252" x2="30.4714" y2="5.622252" transform="translate(69.401007 294.377748)" fill="none" stroke="#ffffff" stroke-width="8"/></g></svg>
